{
  "accessors": [
    {
      "bufferView": 0,
      "componentType": 5125,
      "count": 28704,
      "type": "SCALAR"
    },
    {
      "bufferView": 1,
      "componentType": 5126,
      "count": 5632,
      "max": [
        10.0170431137085,
        12.7719860076904,
        8.56703853607178
      ],
      "min": [
        -10.0170392990112,
        3.58735942840576,
        -6.85454559326172
      ],
      "type": "VEC3"
    },
    {
      "bufferView": 2,
      "componentType": 5126,
      "count": 5632,
      "type": "VEC3"
    },
    {
      "bufferView": 3,
      "componentType": 5126,
      "count": 5632,
      "type": "VEC4"
    },
    {
      "bufferView": 4,
      "componentType": 5126,
      "count": 5632,
      "type": "VEC2"
    },
    {
      "bufferView": 5,
      "componentType": 5125,
      "count": 36936,
      "type": "SCALAR"
    },
    {
      "bufferView": 6,
      "componentType": 5126,
      "count": 6463,
      "max": [
        9.87132549285889,
        24.7754573822021,
        8.61564922332764
      ],
      "min": [
        -9.87132453918457,
        11.2625331878662,
        -6.8862943649292
      ],
      "type": "VEC3"
    },
    {
      "bufferView": 7,
      "componentType": 5126,
      "count": 6463,
      "type": "VEC3"
    },
    {
      "bufferView": 8,
      "componentType": 5126,
      "count": 6463,
      "type": "VEC4"
    },
    {
      "bufferView": 9,
      "componentType": 5126,
      "count": 6463,
      "type": "VEC2"
    }
  ],
  "asset": {
    "generator": "Adobe Substance 3D Painter 12.0.1",
    "version": "2.0"
  },
  "bufferViews": [
    {
      "buffer": 0,
      "byteLength": 114816,
      "target": 34963
    },
    {
      "buffer": 0,
      "byteLength": 67584,
      "byteOffset": 114816,
      "target": 34962
    },
    {
      "buffer": 0,
      "byteLength": 67584,
      "byteOffset": 182400,
      "target": 34962
    },
    {
      "buffer": 0,
      "byteLength": 90112,
      "byteOffset": 249984,
      "target": 34962
    },
    {
      "buffer": 0,
      "byteLength": 45056,
      "byteOffset": 340096,
      "target": 34962
    },
    {
      "buffer": 0,
      "byteLength": 147744,
      "byteOffset": 385152,
      "target": 34963
    },
    {
      "buffer": 0,
      "byteLength": 77556,
      "byteOffset": 532896,
      "target": 34962
    },
    {
      "buffer": 0,
      "byteLength": 77556,
      "byteOffset": 610452,
      "target": 34962
    },
    {
      "buffer": 0,
      "byteLength": 103408,
      "byteOffset": 688008,
      "target": 34962
    },
    {
      "buffer": 0,
      "byteLength": 51704,
      "byteOffset": 791416,
      "target": 34962
    }
  ],
  "buffers": [
    {
      "byteLength": 843120,
      "uri": "UNicorn_pink Dress.bin"
    }
  ],
  "images": [
    {
      "uri": "Pant_baseColor.png"
    },
    {
      "uri": "Pant_occlusionRoughnessMetallic.png"
    },
    {
      "uri": "Pant_normal.png"
    },
    {
      "uri": "T_Shirt_baseColor.png"
    },
    {
      "uri": "T_Shirt_occlusionRoughnessMetallic.png"
    },
    {
      "uri": "T_Shirt_normal.png"
    }
  ],
  "materials": [
    {
      "alphaMode": "OPAQUE",
      "name": "Pant",
      "normalTexture": {
        "index": 2
      },
      "occlusionTexture": {
        "index": 1
      },
      "pbrMetallicRoughness": {
        "baseColorTexture": {
          "index": 0
        },
        "metallicRoughnessTexture": {
          "index": 1
        }
      }
    },
    {
      "alphaMode": "OPAQUE",
      "name": "T_Shirt",
      "normalTexture": {
        "index": 5
      },
      "occlusionTexture": {
        "index": 4
      },
      "pbrMetallicRoughness": {
        "baseColorTexture": {
          "index": 3
        },
        "metallicRoughnessTexture": {
          "index": 4
        }
      }
    }
  ],
  "meshes": [
    {
      "name": "polySurface3",
      "primitives": [
        {
          "attributes": {
            "NORMAL": 2,
            "POSITION": 1,
            "TANGENT": 3,
            "TEXCOORD_0": 4
          },
          "indices": 0,
          "material": 0,
          "mode": 4
        }
      ]
    },
    {
      "name": "polySurface17",
      "primitives": [
        {
          "attributes": {
            "NORMAL": 7,
            "POSITION": 6,
            "TANGENT": 8,
            "TEXCOORD_0": 9
          },
          "indices": 5,
          "material": 1,
          "mode": 4
        }
      ]
    }
  ],
  "nodes": [
    {
      "children": [
        1,
        3
      ],
      "name": "RootNode",
      "scale": [
        0.00999999977648258,
        0.00999999977648258,
        0.00999999977648258
      ]
    },
    {
      "children": [
        2
      ],
      "name": "polySurface3",
      "scale": [
        1.00737977027893,
        1.00737977027893,
        1.00737977027893
      ],
      "translation": [
        -1.40756988287194e-08,
        -0.0604673512279987,
        -0.00599889596924186
      ]
    },
    {
      "mesh": 0,
      "name": "polySurface3"
    },
    {
      "children": [
        4
      ],
      "name": "polySurface17",
      "scale": [
        1.02069783210754,
        1.02069783210754,
        1.02069783210754
      ],
      "translation": [
        -1.97389642409007e-08,
        -0.372961223125458,
        -0.0178835503757
      ]
    },
    {
      "mesh": 1,
      "name": "polySurface17"
    }
  ],
  "samplers": [
    {
      "magFilter": 9729,
      "minFilter": 9985,
      "wrapS": 10497,
      "wrapT": 10497
    }
  ],
  "scene": 0,
  "scenes": [
    {
      "name": "Scene",
      "nodes": [
        0
      ]
    }
  ],
  "textures": [
    {
      "sampler": 0,
      "source": 0
    },
    {
      "sampler": 0,
      "source": 1
    },
    {
      "sampler": 0,
      "source": 2
    },
    {
      "sampler": 0,
      "source": 3
    },
    {
      "sampler": 0,
      "source": 4
    },
    {
      "sampler": 0,
      "source": 5
    }
  ]
}